<svg xmlns="http://www.w3.org/2000/svg" viewBox="0 0 512 512"><defs><style>.a{isolation:isolate;}.b,.d{opacity:0.5;}.c{fill:#05f;}.d{mix-blend-mode:color;}.e{fill:#a90000;}</style></defs><title>wakachika.love.logo</title><g class="a"><g class="b"><path class="c" d="M220,105.41a10.23,10.23,0,0,1,9.15,5.29L392.52,393.63a10.57,10.57,0,0,1-9.15,15.85H56.67a10.57,10.57,0,0,1-9.15-15.85L210.87,110.7a10.23,10.23,0,0,1,9.15-5.29m0-30A40.18,40.18,0,0,0,184.89,95.7L21.54,378.63c-15.62,27,3.9,60.85,35.13,60.85h326.7c31.23,0,50.75-33.81,35.13-60.85L255.15,95.7A40.18,40.18,0,0,0,220,75.41Z"/></g><g class="d"><path class="e" d="M326.45,164.53a10.3,10.3,0,0,1,9.22,5.32L464.8,393.51a10.65,10.65,0,0,1-9.22,16H197.33a10.65,10.65,0,0,1-9.22-16L317.23,169.85a10.32,10.32,0,0,1,9.22-5.32m0-30a40.29,40.29,0,0,0-35.2,20.32L162.13,378.51c-15.65,27.1,3.91,61,35.2,61H455.58c31.29,0,50.85-33.87,35.2-61L361.65,154.85a40.28,40.28,0,0,0-35.2-20.32Z"/></g></g></svg>