<svg viewBox="0 0 1280 720" xmlns="http://www.w3.org/2000/svg"><image transform="" href="data:image/svg+xml,%3Csvg%20xmlns%3D%22http%3A%2F%2Fwww.w3.org%2F2000%2Fsvg%22%20viewBox%3D%220%200%201280%20720%22%3E%3Cg%20id%3D%22f_1%22%3E%3Cpath%20d%3D%22M232%2C280l-6%2C6s-11%2C13-14%2C26c1-2%2C16-23%2C25.15-29.44%2C10.85-6.56%2C17.69-5.36%2C17.69-5.36S288%2C284%2C295%2C269c2-12-7-20-19-31-5-10-13-9-13-9Z%22%20style%3D%22fill%3A%2358bd2d%22%2F%3E%3Cpath%20d%3D%22M274.84%2C236S284%2C220%2C295%2C220c-4%2C2-15%2C15-15%2C24C276%2C262%2C274.84%2C236%2C274.84%2C236Z%22%20style%3D%22fill%3A%2358bd2d%22%2F%3E%3Cpath%20d%3D%22M106%2C104c3%2C2-4%2C65%2C41%2C111-45%2C6-69%2C28-69%2C28s-31%2C22-31%2C37c0%2C10%2C3%2C2%2C3%2C2s13-14%2C30-5%2C26%2C12%2C64%2C18c-24%2C12-32%2C26-13%2C61%2C4-14%2C3-31%2C65-69%2C0%2C0%2C22-2%2C46-22%2C11-12%2C9-11%2C13-31%2C0-14-1-31-1-31V178c-1-4.2-3.06-7.18-5-13-6-17-12-84%2C26-86.47C272%2C71%2C252%2C73%2C237%2C82c-17%2C8-31%2C28-21%2C62C188%2C124%2C165%2C108%2C106%2C104Z%22%20style%3D%22fill%3A%233d3ea6%22%2F%3E%3Cpath%20d%3D%22M198.3%2C286.66A65.36%2C65.36%2C0%2C0%2C0%2C216%2C270c2-12%2C13-44%2C13-44l25-48s5%2C19%2C11%2C27c3.66%2C4.88%2C8.07%2C17.95%2C10.94%2C27.4%2C2.43%2C8%2C2.06%2C25.6-.94%2C30.6-3.85%2C6.42-11.9%2C8.76-20%2C14C244%2C284%2C215.61%2C286.33%2C198.3%2C286.66Z%22%20style%3D%22fill%3A%23535bb8%22%2F%3E%3Cpath%20d%3D%22M194.62%2C220.05c2.13-1.29%2C6-3.7%2C9.31-6.22a2.19%2C2.19%2C0%2C0%2C1%2C2.32-.2C214.55%2C217.87%2C229%2C226%2C229%2C226l-7.33%2C22.57s-11-6.21-25.42-13.9a3.25%2C3.25%2C0%2C0%2C1-1.64-2.19c-.59-2.7-1.12-7.08-1.4-9.57A2.94%2C2.94%2C0%2C0%2C1%2C194.62%2C220.05Z%22%20style%3D%22fill%3A%23fff203%22%2F%3E%3Cpath%20d%3D%22M216%2C270s7.33-37%2C38.66-52.48C246.39%2C204.52%2C248%2C201%2C249%2C197c0%2C0%2C4.87-11.91%2C4.94-18C241%2C189%2C220%2C219%2C216%2C270Z%22%20style%3D%22fill%3A%23787ec7%22%2F%3E%3C%2Fg%3E%3Cg%20id%3D%22f_2%22%3E%3Cpath%20d%3D%22M317%2C226s-.52-4.21%2C6.74-11.61%2C26.39-9.13%2C26.39-9.13S369%2C203%2C372%2C211c-2-1-7-2-17-1%2C0%2C0%2C6%2C19-1%2C23-6%2C3-20-4-23-15C327%2C218.81%2C324%2C219%2C317%2C226Z%22%20style%3D%22fill%3A%2358bd2d%22%2F%3E%3Cpath%20d%3D%22M330%2C127s-29%2C6-50%2C31c10%2C2%2C26%2C3%2C26%2C3Z%22%20style%3D%22fill%3A%233d3ea6%22%2F%3E%3Cpath%20d%3D%22M282.79%2C176.1A37.39%2C37.39%2C0%2C0%2C0%2C280%2C158c11-6%2C18-5%2C24-3S282.79%2C176.1%2C282.79%2C176.1Z%22%20style%3D%22fill%3A%23535bb8%22%2F%3E%3Cpath%20d%3D%22M369%2C152s-5-10-27-15c-8-7-8-7-12-10-6%2C3-16%2C11-26%2C28s33%2C7%2C33%2C7Z%22%20style%3D%22fill%3A%23535bb8%22%2F%3E%3Cpath%20d%3D%22M304%2C155c-23%2C10-31%2C39-22%2C57%2C24%2C1%2C44%2C3%2C59.17%2C2.95C341.17%2C215%2C371%2C189%2C369%2C152%2C351%2C140%2C322%2C151%2C304%2C155Z%22%20style%3D%22fill%3A%233d3ea6%22%2F%3E%3Cpath%20d%3D%22M305%2C157s11.49%2C30.51%2C30.75%2C52.26C328%2C196%2C310%2C166%2C305%2C157Z%22%20style%3D%22fill%3A%23787ec7%22%2F%3E%3C%2Fg%3E%3Cg%20id%3D%22f_3%22%3E%3Cpath%20d%3D%22M467%2C313c14%2C2%2C20-20%2C20.75-22L455%2C287S451.86%2C310.84%2C467%2C313Z%22%20style%3D%22fill%3A%2358bd2d%22%2F%3E%3Cpath%20d%3D%22M487.75%2C289s15.68-2.37%2C19.46%2C4.32c-.21-.32-11.7-4.69-21.95%2C0Z%22%20style%3D%22fill%3A%2358bd2d%22%2F%3E%3Cpath%20d%3D%22M457.47%2C287S446%2C277%2C433%2C282c2%2C0%2C15.69.65%2C23%2C10A34.84%2C34.84%2C0%2C0%2C1%2C457.47%2C287Z%22%20style%3D%22fill%3A%2358bd2d%22%2F%3E%3Cpath%20d%3D%22M386%2C129s26.47-3.49%2C66.23%2C51.75c0%2C0%2C.77-28.75%2C44.77-67.75%2C14-12%2C14-16%2C14-16s28%2C38%2C17%2C101c32-25%2C83-23%2C91-13-23%2C10-44%2C37-44%2C37l-13.66%2C13.58L549%2C254l-25%2C8-46%2C20c.24%2C1.25-39.52%2C9.89-53-34-1.84%2C0-2.61-4-4.34-4-20.88.06-34.8.84-60.66%2C11%2C0%2C0-2.93-37.15%2C49.2-38.95a1.35%2C1.35%2C0%2C0%2C0%2C1.26-1.73%2C160.34%2C160.34%2C0%2C0%2C1-6.4-38.22C403%2C153%2C386%2C129%2C386%2C129Z%22%20style%3D%22fill%3A%233d3ea6%22%2F%3E%3Cpath%20d%3D%22M483.19%2C215.19l9.88%2C9.88a2.67%2C2.67%2C0%2C0%2C1%2C.76%2C2.24C493%2C236%2C491%2C253%2C486%2C267s-12%2C3-22%2C2c-1-13%2C6-49%2C6-49s0-1.82%2C10.39-5.45A2.71%2C2.71%2C0%2C0%2C1%2C483.19%2C215.19Z%22%20style%3D%22fill%3A%23fff203%22%2F%3E%3Cpath%20d%3D%22M510%2C264s18.42%2C6.36%2C29%2C1c-50.58%2C33.36-68%2C28-68%2C28-12-1-42-18-50-49%2C31.78%2C6.94%2C47%2C14%2C55%2C12%22%20style%3D%22fill%3A%23535bb8%22%2F%3E%3Cpath%20d%3D%22M553.92%2C246.66S550%2C260%2C550%2C270s-7%2C30-11%2C38c-13-22-32-36-63-52C520%2C255%2C533.81%2C248.93%2C553.92%2C246.66Z%22%20style%3D%22fill%3A%23787ec7%22%2F%3E%3C%2Fg%3E%3Cg%20id%3D%22f_4%22%3E%3Cpath%20d%3D%22M693%2C237s-2%2C28%2C15%2C29%2C20-27%2C20-27Z%22%20style%3D%22fill%3A%2358bd2d%22%2F%3E%3Cpath%20d%3D%22M744.15%2C226S771%2C220%2C788%2C231c0%2C0-33.09-4.57-57%2C4.21Z%22%20style%3D%22fill%3A%2358bd2d%22%2F%3E%3Cpath%20d%3D%22M677.68%2C224S664%2C217%2C650%2C225c0%2C0%2C19.3-2.42%2C32.15%2C4.79Z%22%20style%3D%22fill%3A%2358bd2d%22%2F%3E%3Cpath%20d%3D%22M643%2C189s-23-20-42-58-39-41-39-41%2C45-15%2C93%2C42c1-44%2C43-101%2C43-101s43%2C37%2C54%2C96c56-37%2C107-29%2C107-29s-17%2C10-35%2C40-28%2C40-29%2C42c5%2C1%2C4-4%2C19-4s26%2C8%2C32%2C24c-13-5-27.81%2C0-27.81%2C0S782%2C209%2C763%2C214a51.68%2C51.68%2C0%2C0%2C1-7%2C6l-28%2C6-56-19Z%22%20style%3D%22fill%3A%233d3ea6%22%2F%3E%3Cpath%20d%3D%22M719.38%2C165l-11.3%2C7.27a2.71%2C2.71%2C0%2C0%2C0-1.24%2C2c-.62%2C5-2.84%2C23.83-2.84%2C36.73l19%2C9s6.8-12.63%2C8-43.65a3.25%2C3.25%2C0%2C0%2C0-.85-2.34l-7.8-8.58A2.28%2C2.28%2C0%2C0%2C0%2C719.38%2C165Z%22%20style%3D%22fill%3A%23fff203%22%2F%3E%3Cpath%20d%3D%22M710%2C207l12%2C9s23.18%2C4.85%2C36.09%2C2.43C751%2C226%2C736%2C242%2C709%2C243c-13-1-34-16-45.39-31.64L678%2C205Z%22%20style%3D%22fill%3A%23535bb8%22%2F%3E%3Cpath%20d%3D%22M643%2C189s-2.19%2C6.75-10%2C13c-10%2C8-8%2C20-8%2C20s12-11%2C85-15C710%2C207%2C680%2C204%2C643%2C189Z%22%20style%3D%22fill%3A%23787ec7%22%2F%3E%3C%2Fg%3E%3Cg%20id%3D%22f_5%22%3E%3Cpath%20d%3D%22M856.49%2C216.57S853%2C229%2C857%2C232s17-5%2C17-5l-13-12Z%22%20style%3D%22fill%3A%2358bd2d%22%2F%3E%3Cpath%20d%3D%22M858%2C215s-7-7-17-5a38.9%2C38.9%2C0%2C0%2C1%2C17.31%2C8.9Z%22%20style%3D%22fill%3A%2358bd2d%22%2F%3E%3Cpath%20d%3D%22M879%2C227s7%2C4.74%2C7%2C10c0%2C0-7-9-13-10Z%22%20style%3D%22fill%3A%2358bd2d%22%2F%3E%3Cpath%20d%3D%22M886%2C152.56%2C900%2C156s8%2C3.26%2C13%2C8.13S930%2C179%2C930%2C191s-4%2C24-10%2C31Z%22%20style%3D%22fill%3A%233d3ea6%22%2F%3E%3Cpath%20d%3D%22M862%2C173s2-3%2C1-15c0%2C0%2C25-19%2C50%2C12Z%22%20style%3D%22fill%3A%23535bb8%22%2F%3E%3Cpath%20d%3D%22M913%2C170s26%2C16%2C7%2C52c0%2C0-8.79-3.27-25.89%2C2.37S876%2C228%2C870%2C228a32.43%2C32.43%2C0%2C0%2C1-4.83-2L906%2C172Z%22%20style%3D%22fill%3A%23535bb8%22%2F%3E%3Cpath%20d%3D%22M865.17%2C226C881%2C219%2C913.5%2C178.5%2C913%2C170l-15-7c-11-3-24%2C5-36%2C10%2C0%2C0-9%2C28-4%2C45C859%2C222%2C865%2C226%2C865.17%2C226Z%22%20style%3D%22fill%3A%233d3ea6%22%2F%3E%3C%2Fg%3E%3Cg%20id%3D%22f_6%22%3E%3Cpath%20d%3D%22M933.51%2C226S941%2C154%2C1005%2C137l2.3%2C25.62S1010%2C185%2C1008%2C201c0%2C0%2C22.29-17.87%2C74-6.83%2C32%2C6.83%2C36.43%2C0%2C36.43%2C0S1113%2C217%2C1096%2C242s-26%2C29-38%2C37c0%2C0%2C11.68%2C2.13%2C29%2C44%2C12%2C29%2C31%2C40%2C31%2C40s-88%2C4-107-6a79.43%2C79.43%2C0%2C0%2C1-11%2C29c-9%2C14-11%2C31-11%2C31s-56-31-59-83c0%2C0-15.62-5.92-24-17-6-8-17-15-17-15s11-14%2C15-32C911.67%2C235.49%2C933.51%2C226%2C933.51%2C226Z%22%20style%3D%22fill%3A%233d3ea6%22%2F%3E%3Cpath%20d%3D%22M960%2C262s23%2C1%2C31%2C5l6.22%2C12.44a2.24%2C2.24%2C0%2C0%2C1-.56%2C2.71C994.22%2C284.22%2C989%2C288.5%2C986%2C290c-4.38.29-24.47-3.64-32-8a24.79%2C24.79%2C0%2C0%2C1-3.8-8.93%2C2.35%2C2.35%2C0%2C0%2C1%2C.39-1.89C952.34%2C268.79%2C957.53%2C262%2C960%2C262Z%22%20style%3D%22fill%3A%23fff203%22%2F%3E%3C%2Fg%3E%3Cg%20id%3D%22f_7%22%3E%3Cpath%20d%3D%22M1050.21%2C420S1020%2C416%2C1018%2C426s25.76%2C18.91%2C25.76%2C18.91Z%22%20style%3D%22fill%3A%2358bd2d%22%2F%3E%3Cpath%20d%3D%22M1047.66%2C453.64S1048%2C472%2C1040%2C483a102.23%2C102.23%2C0%2C0%2C0%2C4.27-32.29Z%22%20style%3D%22fill%3A%2358bd2d%22%2F%3E%3Cpath%20d%3D%22M1061%2C409s10-15-1-29c0%2C0%2C6%2C16-5%2C35Z%22%20style%3D%22fill%3A%2358bd2d%22%2F%3E%3Cpath%20d%3D%22M1102%2C385s5-12.24%2C58-20c41-6%2C44-14%2C44-14s11%2C44-57%2C69c0%2C0%2C45%2C16%2C78%2C62%2C0%2C0-46%2C24-100%2C15%2C0%2C0-1%2C0%2C.32%2C2%2C2.68%2C4%2C21%2C29.54%2C10.68%2C71-2%2C8-1%2C11-1%2C11s-8-12-24-27-48-53-48-53l8.3-35L1048%2C438l5-12.83L1099%2C389Z%22%20style%3D%22fill%3A%233d3ea6%22%2F%3E%3Cpath%20d%3D%22M1070.56%2C438.44l5-5a1.71%2C1.71%2C0%2C0%2C1%2C1.13-.5%2C57.83%2C57.83%2C0%2C0%2C1%2C30.09%2C7.62%2C2.05%2C2.05%2C0%2C0%2C1%2C1%2C2c-.44%2C3.54-2.11%2C13-7.77%2C15.4%2C0%2C0-16.39.61-27-10-2.32-2.32-2.84-6.42-3-8.17A1.76%2C1.76%2C0%2C0%2C1%2C1070.56%2C438.44Z%22%20style%3D%22fill%3A%23fff203%22%2F%3E%3Cpath%20d%3D%22M1102.72%2C383.92s7.77%2C3.14%2C4.28%2C31.08c-1%2C5-20%2C11-20%2C11s-12%2C3-18%2C7c-5%2C1-17%2C3-17%2C3s23%2C7%2C37%2C36c0%2C0-.42%2C7.53-25.71%2C27.77A61.79%2C61.79%2C0%2C0%2C0%2C1063%2C486c-1-8-10-13.26-10-13.26s-11-5.74-9-39.74c6-18%2C18-26%2C18-26S1090.44%2C393.85%2C1102.72%2C383.92Z%22%20style%3D%22fill%3A%23535bb8%22%2F%3E%3C%2Fg%3E%3Cg%20id%3D%22f_8%22%3E%3Cpath%20d%3D%22M1022%2C505c1%2C1-1%2C8-11%2C13l-3-2C1007.72%2C515.56%2C1019.19%2C512.4%2C1022%2C505Z%22%20style%3D%22fill%3A%2358bd2d%22%2F%3E%3Cpath%20d%3D%22M968%2C521s3%2C8%2C17%2C3l1.94-3S973%2C526%2C968%2C521Z%22%20style%3D%22fill%3A%2358bd2d%22%2F%3E%3Cpath%20d%3D%22M1006%2C513s-10.1-23.3-20-20c-9%2C3-.21%2C27.43-.21%2C27.43l20.21-.9V513h0%22%20style%3D%22fill%3A%2358bd2d%22%2F%3E%3Cpath%20d%3D%22M996%2C516c7%2C0%2C6%2C0%2C10-3a53.37%2C53.37%2C0%2C0%2C0%2C11%2C4c5%2C1%2C18%2C7%2C22%2C12s13%2C8%2C13%2C8%2C4%2C10-13%2C27c-6%2C6-11%2C8-11%2C8s-7.7%2C4-11.85%2C9Z%22%20style%3D%22fill%3A%23535bb8%22%2F%3E%3Cpath%20d%3D%22M993%2C515l9%2C3s40.3%2C27%2C14.15%2C63c0%2C0-1.15-2-6.15-1-6.2%2C1.24-31.86%2C6.24-44-14-2-3-2-4-4-6%2C0%2C0%2C9-8%2C10-18S989%2C516%2C993%2C515Z%22%20style%3D%22fill%3A%233d3ea6%22%2F%3E%3C%2Fg%3E%3Cg%20id%3D%22f_9%22%3E%3Cpath%20d%3D%22M943%2C566s-17%2C1-29%2C6-58%2C20-76%2C10c0%2C0%2C3.63%2C29.48-24%2C65-7%2C9-12%2C17-12%2C17a72.92%2C72.92%2C0%2C0%2C0-18-26c-13-12-34-42-40-57%2C0%2C0-43%2C0-60-10s-32-11-32-11%2C9-12%2C16-24%2C22-37%2C60-54c0%2C0-9-24-7-44s-4-47-4-47%2C68%2C1%2C89%2C52c0%2C0%2C27-45%2C72-49%2C0%2C0%2C18%2C54-16%2C96C862%2C490%2C913%2C513%2C943%2C566Z%22%20style%3D%22fill%3A%233d3ea6%22%2F%3E%3Cpath%20d%3D%22M776%2C505a43.55%2C43.55%2C0%2C0%2C1%2C19%2C3s5.69%2C7.31%2C7.54%2C11.69a2.89%2C2.89%2C0%2C0%2C1-.12%2C2.5A30.9%2C30.9%2C0%2C0%2C1%2C795%2C531H774.28s-4.82-1.82-9.61-13.31a3.84%2C3.84%2C0%2C0%2C1%2C.58-3.89C766.65%2C512.07%2C769.64%2C509.24%2C776%2C505Z%22%20style%3D%22fill%3A%23fff203%22%2F%3E%3C%2Fg%3E%3Cg%20id%3D%22f_10%22%3E%3Cpath%20d%3D%22M571.29%2C498.46S574%2C468%2C562%2C465s-22.48%2C25.5-22.48%2C25.5Z%22%20style%3D%22fill%3A%2358bd2d%22%2F%3E%3Cpath%20d%3D%22M599%2C502s-5%2C11-25%2C6l-2-7S586%2C510%2C599%2C502Z%22%20style%3D%22fill%3A%2358bd2d%22%2F%3E%3Cpath%20d%3D%22M533%2C497s-17-4-16-15c0%2C0%2C3.49%2C12.13%2C25%2C9Z%22%20style%3D%22fill%3A%2358bd2d%22%2F%3E%3Cpath%20d%3D%22M621%2C571s4%2C1%2C10%2C20%2C18%2C36%2C28%2C43c0%2C0-35-6-81-41%2C0%2C0-18%2C34-53%2C49%2C0%2C0-27-25-30-67%2C0%2C0-77%2C2-87-15%2C0%2C0%2C13%2C0%2C17-9%2C0%2C0%2C9-14%2C35-17l73.5-9.94L551%2C524l59%2C40Z%22%20style%3D%22fill%3A%233d3ea6%22%2F%3E%3Cpath%20d%3D%22M539%2C556s7%2C0%2C12-2c0%2C0%2C4.84-18.65%2C5.42-26.33L537%2C523a82.37%2C82.37%2C0%2C0%2C0-6%2C26S531%2C553%2C539%2C556Z%22%20style%3D%22fill%3A%23fff203%22%2F%3E%3Cpath%20d%3D%22M485%2C527a110.67%2C110.67%2C0%2C0%2C1%2C15-9s34-34%2C54-29%2C23.6%2C19.73%2C23.6%2C19.73l27.27%2C51.79L566%2C543l-20-15-5.68-4L532%2C527l-47%2C3.19Z%22%20style%3D%22fill%3A%23535bb8%22%2F%3E%3Cpath%20d%3D%22M433%2C513s-4%2C40%2C102.36%2C12.79C535.36%2C525.79%2C459%2C534%2C433%2C513Z%22%20style%3D%22fill%3A%23787ec7%22%2F%3E%3Cpath%20d%3D%22M638.11%2C556c4.89%2C26-41.11%2C19-97.06-31.68C541.05%2C524.32%2C625%2C584%2C638.11%2C556Z%22%20style%3D%22fill%3A%23787ec7%22%2F%3E%3C%2Fg%3E%3Cg%20id%3D%22f_11%22%3E%3Cpath%20d%3D%22M398%2C542s-59%2C7-91-38c0%2C0-6%2C14.19-35%2C16-16%2C1-44%2C16-44%2C16s-20-63-2-79c0%2C0-18.5-1.6-34-14a89.34%2C89.34%2C0%2C0%2C0-13-8s-18-8-35-45c0%2C0%2C24-2%2C53-19%2C0%2C0%2C27.53-16.33%2C48.77-10.67%2C0%2C0%2C2.23-57.33%2C37.23-76.33%2C0%2C0%2C27%2C24%2C56%2C80a71.12%2C71.12%2C0%2C0%2C1%2C40%2C1c14.1%2C4.7%2C44%2C1%2C44%2C1s-5%2C42-43%2C79c0%2C0%2C4.23%2C5%2C6.62%2C43.5S398%2C542%2C398%2C542Z%22%20style%3D%22fill%3A%233d3ea6%22%2F%3E%3Cpath%20d%3D%22M304.53%2C409.15l-24%2C18.69a2.52%2C2.52%2C0%2C0%2C0-.79%2C2.91l4.85%2C12.13a2.2%2C2.2%2C0%2C0%2C0%2C1.64%2C1.34l9%2C1.63a2.68%2C2.68%2C0%2C0%2C0%2C1.76-.27c2.28-1.25%2C8.84-5.9%2C20.11-22.17a2.63%2C2.63%2C0%2C0%2C0%2C.07-2.91%2C49.66%2C49.66%2C0%2C0%2C0-9.56-11.31A2.39%2C2.39%2C0%2C0%2C0%2C304.53%2C409.15Z%22%20style%3D%22fill%3A%23fff203%22%2F%3E%3C%2Fg%3E%3C%2Fsvg%3E" height="720" width="1280" y="0" x="0" /><g><g><rect ry="8" rx="8" fill="#ebf766" height="132" width="132" y="232" x="117.12" /><rect ry="8" rx="8" stroke-width="12" stroke="white" fill="none" height="126" width="126" y="235" x="120.12" /><rect ry="8" rx="8" stroke-width="6" stroke="#2962c5" fill="none" height="126" width="126" y="235" x="120.12" /><path stroke-width="6" stroke="white" fill="none" d="M151.97 272.34C144.58 272.34 141.51 275.19 141.51 281.74L141.51 297.47C141.51 304.76 145.42 306.87 151.97 306.87L177.00 306.87C176.15 307.72 175.41 308.77 175.20 310.46C175.09 311.09 174.67 313.63 174.46 314.68L137.82 314.68C136.76 314.68 134.86 315.00 134.86 317.11C134.86 319.33 136.87 319.54 137.82 319.54L173.09 319.54C171.72 323.24 165.80 338.66 139.19 341.51C137.50 341.72 136.55 342.67 136.55 343.94C136.55 345.20 137.50 346.36 138.87 346.36C144.68 346.36 157.67 343.62 164.53 340.87C173.40 337.28 181.64 331.48 186.18 319.54L212.58 319.54C213.32 319.54 215.01 319.54 215.01 321.65C215.01 322.29 214.59 327.78 212.69 334.43C210.89 340.35 208.57 340.77 203.71 340.77L192.62 340.77C191.57 340.77 189.77 341.08 189.77 343.09C189.77 345.20 191.67 345.41 192.62 345.41L207.41 345.41C214.38 345.41 219.55 345.41 222.83 338.66C225.89 332.32 226.94 323.98 226.94 321.55C226.94 314.68 220.08 314.68 218.28 314.68L187.66 314.68C187.98 313.42 188.19 312.26 188.19 311.20C188.19 309.09 187.45 307.61 186.18 306.87L214.38 306.87C221.77 306.87 224.83 304.02 224.83 297.47L224.83 281.74C224.83 274.56 220.92 272.34 214.38 272.34L195.69 272.34C195.79 271.39 195.69 270.97 195.37 270.02C202.34 267.38 215.86 260.93 217.23 260.20C218.81 259.24 219.97 257.87 219.97 256.50C219.97 253.23 216.49 252.59 214.06 252.59L143.94 252.59C142.89 252.59 140.99 252.91 140.99 255.02C140.99 257.13 142.99 257.45 143.94 257.45L198.22 257.45C199.07 257.45 199.80 257.77 199.80 258.72C199.80 259.98 191.67 264.84 189.77 266.00C184.07 263.57 170.34 259.46 166.22 259.46C164.96 259.46 163.69 260.30 163.69 261.78C163.69 263.26 164.96 263.89 166.01 264.31C174.78 268.12 177.21 269.28 181.85 272.34ZM177.63 277.20L177.63 286.81L152.92 286.81L152.92 281.74C152.92 278.25 153.66 277.20 157.46 277.20ZM152.92 291.66L177.63 291.66L177.63 302.01L157.46 302.01C153.55 302.01 152.92 300.85 152.92 297.47ZM188.61 302.01L188.61 291.66L213.22 291.66L213.22 297.47C213.22 300.85 212.58 302.01 208.68 302.01ZM213.22 286.81L188.61 286.81L188.61 277.20L208.68 277.20C212.48 277.20 213.22 278.25 213.22 281.74Z" /><path fill="#2962c5" d="M151.97 272.34C144.58 272.34 141.51 275.19 141.51 281.74L141.51 297.47C141.51 304.76 145.42 306.87 151.97 306.87L177.00 306.87C176.15 307.72 175.41 308.77 175.20 310.46C175.09 311.09 174.67 313.63 174.46 314.68L137.82 314.68C136.76 314.68 134.86 315.00 134.86 317.11C134.86 319.33 136.87 319.54 137.82 319.54L173.09 319.54C171.72 323.24 165.80 338.66 139.19 341.51C137.50 341.72 136.55 342.67 136.55 343.94C136.55 345.20 137.50 346.36 138.87 346.36C144.68 346.36 157.67 343.62 164.53 340.87C173.40 337.28 181.64 331.48 186.18 319.54L212.58 319.54C213.32 319.54 215.01 319.54 215.01 321.65C215.01 322.29 214.59 327.78 212.69 334.43C210.89 340.35 208.57 340.77 203.71 340.77L192.62 340.77C191.57 340.77 189.77 341.08 189.77 343.09C189.77 345.20 191.67 345.41 192.62 345.41L207.41 345.41C214.38 345.41 219.55 345.41 222.83 338.66C225.89 332.32 226.94 323.98 226.94 321.55C226.94 314.68 220.08 314.68 218.28 314.68L187.66 314.68C187.98 313.42 188.19 312.26 188.19 311.20C188.19 309.09 187.45 307.61 186.18 306.87L214.38 306.87C221.77 306.87 224.83 304.02 224.83 297.47L224.83 281.74C224.83 274.56 220.92 272.34 214.38 272.34L195.69 272.34C195.79 271.39 195.69 270.97 195.37 270.02C202.34 267.38 215.86 260.93 217.23 260.20C218.81 259.24 219.97 257.87 219.97 256.50C219.97 253.23 216.49 252.59 214.06 252.59L143.94 252.59C142.89 252.59 140.99 252.91 140.99 255.02C140.99 257.13 142.99 257.45 143.94 257.45L198.22 257.45C199.07 257.45 199.80 257.77 199.80 258.72C199.80 259.98 191.67 264.84 189.77 266.00C184.07 263.57 170.34 259.46 166.22 259.46C164.96 259.46 163.69 260.30 163.69 261.78C163.69 263.26 164.96 263.89 166.01 264.31C174.78 268.12 177.21 269.28 181.85 272.34ZM177.63 277.20L177.63 286.81L152.92 286.81L152.92 281.74C152.92 278.25 153.66 277.20 157.46 277.20ZM152.92 291.66L177.63 291.66L177.63 302.01L157.46 302.01C153.55 302.01 152.92 300.85 152.92 297.47ZM188.61 302.01L188.61 291.66L213.22 291.66L213.22 297.47C213.22 300.85 212.58 302.01 208.68 302.01ZM213.22 286.81L188.61 286.81L188.61 277.20L208.68 277.20C212.48 277.20 213.22 278.25 213.22 281.74Z" /></g><g><rect ry="8" rx="8" fill="#ebf766" height="114.84" width="114.84" y="240.57999999999998" x="261.12" /><rect ry="8" rx="8" stroke-width="12" stroke="white" fill="none" height="108.84" width="108.84" y="243.57999999999998" x="264.12" /><rect ry="8" rx="8" stroke-width="6" stroke="#2962c5" fill="none" height="108.84" width="108.84" y="243.57999999999998" x="264.12" /><path stroke-width="6" stroke="white" fill="none" d="M336.55 283.58C342.33 278.80 353.27 268.88 353.27 264.56C353.27 262.17 350.70 259.87 347.57 259.87C345.00 259.87 343.90 261.16 342.52 263.27C340.04 267.22 334.99 275.22 324.60 283.58L317.62 283.58L317.62 269.89L331.03 269.89C331.77 269.89 333.88 269.89 333.88 267.77C333.88 265.66 331.77 265.66 331.03 265.66L317.62 265.66L317.62 261.34C317.62 258.95 317.62 255.00 312.48 255.00C307.42 255.00 307.42 258.95 307.42 261.34L307.42 265.66L287.58 265.66C286.84 265.66 284.82 265.66 284.82 267.77C284.82 269.89 286.94 269.89 287.58 269.89L307.42 269.89L307.42 283.58L279.13 283.58C278.39 283.58 276.37 283.58 276.37 285.69C276.37 287.80 278.39 287.80 279.13 287.80L319.09 287.80C312.66 292.40 297.87 301.03 279.04 304.89C277.75 305.17 276.00 305.53 276.00 307.28C276.00 308.38 276.92 309.39 278.12 309.39C278.67 309.39 285.01 308.38 294.75 305.53C294.65 306.08 294.65 306.36 294.65 307.10L294.65 329.79C294.65 335.58 297.87 338.06 303.75 338.06L339.76 338.06C344.91 338.06 348.86 336.22 348.86 329.79L348.86 307.10C348.86 301.40 345.83 298.83 339.76 298.83L312.20 298.83C321.20 294.60 328.19 289.82 331.03 287.80L357.86 287.80C358.60 287.80 360.62 287.80 360.62 285.69C360.62 283.58 358.60 283.58 357.86 283.58ZM304.58 316.19L304.58 307.28C304.58 303.79 305.40 302.96 308.80 302.96L334.62 302.96C338.02 302.96 338.94 303.79 338.94 307.28L338.94 316.19ZM338.94 320.42L338.94 329.51C338.94 332.91 338.11 333.83 334.62 333.83L308.80 333.83C305.31 333.83 304.58 332.91 304.58 329.51L304.58 320.42Z" /><path fill="#2962c5" d="M336.55 283.58C342.33 278.80 353.27 268.88 353.27 264.56C353.27 262.17 350.70 259.87 347.57 259.87C345.00 259.87 343.90 261.16 342.52 263.27C340.04 267.22 334.99 275.22 324.60 283.58L317.62 283.58L317.62 269.89L331.03 269.89C331.77 269.89 333.88 269.89 333.88 267.77C333.88 265.66 331.77 265.66 331.03 265.66L317.62 265.66L317.62 261.34C317.62 258.95 317.62 255.00 312.48 255.00C307.42 255.00 307.42 258.95 307.42 261.34L307.42 265.66L287.58 265.66C286.84 265.66 284.82 265.66 284.82 267.77C284.82 269.89 286.94 269.89 287.58 269.89L307.42 269.89L307.42 283.58L279.13 283.58C278.39 283.58 276.37 283.58 276.37 285.69C276.37 287.80 278.39 287.80 279.13 287.80L319.09 287.80C312.66 292.40 297.87 301.03 279.04 304.89C277.75 305.17 276.00 305.53 276.00 307.28C276.00 308.38 276.92 309.39 278.12 309.39C278.67 309.39 285.01 308.38 294.75 305.53C294.65 306.08 294.65 306.36 294.65 307.10L294.65 329.79C294.65 335.58 297.87 338.06 303.75 338.06L339.76 338.06C344.91 338.06 348.86 336.22 348.86 329.79L348.86 307.10C348.86 301.40 345.83 298.83 339.76 298.83L312.20 298.83C321.20 294.60 328.19 289.82 331.03 287.80L357.86 287.80C358.60 287.80 360.62 287.80 360.62 285.69C360.62 283.58 358.60 283.58 357.86 283.58ZM304.58 316.19L304.58 307.28C304.58 303.79 305.40 302.96 308.80 302.96L334.62 302.96C338.02 302.96 338.94 303.79 338.94 307.28L338.94 316.19ZM338.94 320.42L338.94 329.51C338.94 332.91 338.11 333.83 334.62 333.83L308.80 333.83C305.31 333.83 304.58 332.91 304.58 329.51L304.58 320.42Z" /></g><g><rect ry="8" rx="8" fill="#ebf766" height="132" width="132" y="232" x="387.96000000000004" /><rect ry="8" rx="8" stroke-width="12" stroke="white" fill="none" height="126" width="126" y="235" x="390.96000000000004" /><rect ry="8" rx="8" stroke-width="6" stroke="#2962c5" fill="none" height="126" width="126" y="235" x="390.96000000000004" /><path stroke-width="6" stroke="white" fill="none" d="M494.19 274.24C492.40 273.92 491.03 275.30 491.03 276.67C491.03 277.30 491.24 278.04 491.87 278.68C494.51 281.63 494.72 281.84 496.09 283.74C499.05 287.76 499.37 288.18 500.74 288.18C502.85 288.18 504.44 286.49 504.44 284.59C504.44 281.74 495.57 274.45 494.19 274.24ZM484.16 278.57C482.26 278.15 480.78 279.41 480.78 281.00C480.78 281.84 481.42 282.69 481.94 283.32C483.63 285.33 485.85 288.81 486.70 290.19C488.70 293.56 489.02 294.09 490.81 294.09C492.93 294.09 494.72 292.40 494.72 290.40C494.72 287.76 485.85 278.99 484.16 278.57ZM462.41 265.48C455.23 269.17 434.53 279.94 434.53 303.81C434.53 331.37 460.40 339.18 478.88 339.18C480.25 339.18 483.42 339.18 483.42 335.70C483.42 332.64 480.57 332.53 478.56 332.43C457.76 331.90 447.31 318.80 447.31 301.27C447.31 282.16 460.40 265.69 489.23 264.84C495.04 264.63 496.62 264.63 496.62 261.67C496.62 258.40 493.56 258.40 492.72 258.40C490.50 258.40 476.14 259.24 472.02 259.56C464.41 260.09 431.15 261.67 423.55 262.10C410.77 262.94 409.82 262.84 409.82 265.90C409.82 267.69 411.19 268.96 412.78 268.96C413.20 268.96 425.87 267.90 428.40 267.69C429.14 267.69 453.54 265.79 462.41 265.48Z" /><path fill="#2962c5" d="M494.19 274.24C492.40 273.92 491.03 275.30 491.03 276.67C491.03 277.30 491.24 278.04 491.87 278.68C494.51 281.63 494.72 281.84 496.09 283.74C499.05 287.76 499.37 288.18 500.74 288.18C502.85 288.18 504.44 286.49 504.44 284.59C504.44 281.74 495.57 274.45 494.19 274.24ZM484.16 278.57C482.26 278.15 480.78 279.41 480.78 281.00C480.78 281.84 481.42 282.69 481.94 283.32C483.63 285.33 485.85 288.81 486.70 290.19C488.70 293.56 489.02 294.09 490.81 294.09C492.93 294.09 494.72 292.40 494.72 290.40C494.72 287.76 485.85 278.99 484.16 278.57ZM462.41 265.48C455.23 269.17 434.53 279.94 434.53 303.81C434.53 331.37 460.40 339.18 478.88 339.18C480.25 339.18 483.42 339.18 483.42 335.70C483.42 332.64 480.57 332.53 478.56 332.43C457.76 331.90 447.31 318.80 447.31 301.27C447.31 282.16 460.40 265.69 489.23 264.84C495.04 264.63 496.62 264.63 496.62 261.67C496.62 258.40 493.56 258.40 492.72 258.40C490.50 258.40 476.14 259.24 472.02 259.56C464.41 260.09 431.15 261.67 423.55 262.10C410.77 262.94 409.82 262.84 409.82 265.90C409.82 267.69 411.19 268.96 412.78 268.96C413.20 268.96 425.87 267.90 428.40 267.69C429.14 267.69 453.54 265.79 462.41 265.48Z" /></g><g><rect ry="8" rx="8" fill="#ebf766" height="114.84" width="114.84" y="240.57999999999998" x="531.96" /><rect ry="8" rx="8" stroke-width="12" stroke="white" fill="none" height="108.84" width="108.84" y="243.57999999999998" x="534.96" /><rect ry="8" rx="8" stroke-width="6" stroke="#2962c5" fill="none" height="108.84" width="108.84" y="243.57999999999998" x="534.96" /><path stroke-width="6" stroke="white" fill="none" d="M603.07 293.41C612.26 296.90 615.47 303.42 615.47 310.49C615.47 321.24 608.40 329.79 596.82 331.72C592.69 332.45 591.86 332.64 591.86 334.57C591.86 336.04 592.78 337.14 594.52 337.14C595.54 337.14 625.85 334.93 625.85 310.13C625.85 295.70 615.47 287.34 595.99 287.34C590.94 287.34 588.46 287.80 585.80 288.35C586.26 283.48 586.90 279.17 587.27 276.69C599.03 276.32 611.25 275.58 615.66 275.12C618.32 274.85 619.61 274.48 619.61 272.37C619.61 271.17 618.78 269.80 616.85 269.80C614.00 269.80 609.59 270.44 606.74 270.62C603.62 270.81 596.18 271.27 588.09 271.63C588.55 269.06 590.30 260.61 590.30 259.78C590.30 257.39 588.28 255.37 584.88 255.37C580.56 255.37 580.01 258.04 579.64 259.96C579.37 261.53 578.91 265.29 578.17 272.00C571.65 272.18 564.48 272.28 557.96 272.28C556.95 272.28 554.84 272.28 554.84 274.94C554.84 277.51 557.04 277.51 558.14 277.51C563.47 277.51 572.48 277.33 577.62 277.05C577.44 279.26 576.70 288.72 576.61 290.83C572.38 292.67 567.79 294.69 563.01 299.29C557.50 304.61 554.01 311.69 554.01 319.13C554.01 322.71 554.65 334.38 567.70 334.38C579.37 334.38 595.26 324.55 603.07 293.41ZM595.72 291.94C594.16 300.48 591.31 308.66 586.62 315.92C585.06 309.58 585.25 298.46 585.52 293.13C588.19 292.40 591.49 291.75 595.72 291.94ZM579.37 323.36C576.52 325.93 572.57 328.04 568.71 328.04C563.29 328.04 562.55 322.35 562.55 319.31C562.55 315.09 563.84 309.85 567.24 305.17C570.36 300.85 573.58 299.10 576.52 297.45C576.52 301.67 576.43 314.72 579.37 323.36Z" /><path fill="#2962c5" d="M603.07 293.41C612.26 296.90 615.47 303.42 615.47 310.49C615.47 321.24 608.40 329.79 596.82 331.72C592.69 332.45 591.86 332.64 591.86 334.57C591.86 336.04 592.78 337.14 594.52 337.14C595.54 337.14 625.85 334.93 625.85 310.13C625.85 295.70 615.47 287.34 595.99 287.34C590.94 287.34 588.46 287.80 585.80 288.35C586.26 283.48 586.90 279.17 587.27 276.69C599.03 276.32 611.25 275.58 615.66 275.12C618.32 274.85 619.61 274.48 619.61 272.37C619.61 271.17 618.78 269.80 616.85 269.80C614.00 269.80 609.59 270.44 606.74 270.62C603.62 270.81 596.18 271.27 588.09 271.63C588.55 269.06 590.30 260.61 590.30 259.78C590.30 257.39 588.28 255.37 584.88 255.37C580.56 255.37 580.01 258.04 579.64 259.96C579.37 261.53 578.91 265.29 578.17 272.00C571.65 272.18 564.48 272.28 557.96 272.28C556.95 272.28 554.84 272.28 554.84 274.94C554.84 277.51 557.04 277.51 558.14 277.51C563.47 277.51 572.48 277.33 577.62 277.05C577.44 279.26 576.70 288.72 576.61 290.83C572.38 292.67 567.79 294.69 563.01 299.29C557.50 304.61 554.01 311.69 554.01 319.13C554.01 322.71 554.65 334.38 567.70 334.38C579.37 334.38 595.26 324.55 603.07 293.41ZM595.72 291.94C594.16 300.48 591.31 308.66 586.62 315.92C585.06 309.58 585.25 298.46 585.52 293.13C588.19 292.40 591.49 291.75 595.72 291.94ZM579.37 323.36C576.52 325.93 572.57 328.04 568.71 328.04C563.29 328.04 562.55 322.35 562.55 319.31C562.55 315.09 563.84 309.85 567.24 305.17C570.36 300.85 573.58 299.10 576.52 297.45C576.52 301.67 576.43 314.72 579.37 323.36Z" /></g><g><rect ry="8" rx="8" fill="#ebf766" height="132" width="132" y="232" x="658.8000000000001" /><rect ry="8" rx="8" stroke-width="12" stroke="white" fill="none" height="126" width="126" y="235" x="661.8000000000001" /><rect ry="8" rx="8" stroke-width="6" stroke="#2962c5" fill="none" height="126" width="126" y="235" x="661.8000000000001" /><path stroke-width="6" stroke="white" fill="none" d="M732.72 259.46C726.70 265.58 703.79 287.23 694.18 295.99C684.04 305.29 682.88 306.34 682.88 309.19C682.88 312.36 685.41 314.79 688.47 314.79C690.80 314.79 691.32 314.26 695.97 309.30C703.36 301.48 715.30 291.45 731.24 291.45C750.46 291.45 752.78 306.76 752.78 312.26C752.78 316.69 751.73 325.98 741.06 332.95C740.01 328.52 736.52 313.31 718.15 313.31C708.22 313.31 700.93 318.28 700.93 326.93C700.93 336.54 710.65 342.88 725.01 342.88C751.20 342.88 765.03 328.10 765.03 311.41C765.03 291.24 745.18 286.17 732.93 286.17C724.48 286.17 719.84 287.97 716.04 289.34C724.91 281.21 733.88 273.08 742.96 265.16C747.08 261.57 748.67 260.20 748.67 257.77C748.67 254.39 746.03 252.80 742.33 252.80C740.96 252.80 734.41 253.23 732.93 253.33C731.98 253.33 715.72 254.18 702.10 254.49C699.56 254.60 696.92 254.60 696.92 258.08C696.92 259.56 697.77 261.36 700.30 261.36C704.31 261.36 727.76 259.77 732.72 259.46ZM731.66 336.86C729.55 337.28 727.97 337.49 725.96 337.49C723.64 337.49 710.23 337.49 710.23 327.36C710.23 322.92 713.82 319.12 718.78 319.12C724.06 319.12 730.29 322.39 731.66 336.86Z" /><path fill="#2962c5" d="M732.72 259.46C726.70 265.58 703.79 287.23 694.18 295.99C684.04 305.29 682.88 306.34 682.88 309.19C682.88 312.36 685.41 314.79 688.47 314.79C690.80 314.79 691.32 314.26 695.97 309.30C703.36 301.48 715.30 291.45 731.24 291.45C750.46 291.45 752.78 306.76 752.78 312.26C752.78 316.69 751.73 325.98 741.06 332.95C740.01 328.52 736.52 313.31 718.15 313.31C708.22 313.31 700.93 318.28 700.93 326.93C700.93 336.54 710.65 342.88 725.01 342.88C751.20 342.88 765.03 328.10 765.03 311.41C765.03 291.24 745.18 286.17 732.93 286.17C724.48 286.17 719.84 287.97 716.04 289.34C724.91 281.21 733.88 273.08 742.96 265.16C747.08 261.57 748.67 260.20 748.67 257.77C748.67 254.39 746.03 252.80 742.33 252.80C740.96 252.80 734.41 253.23 732.93 253.33C731.98 253.33 715.72 254.18 702.10 254.49C699.56 254.60 696.92 254.60 696.92 258.08C696.92 259.56 697.77 261.36 700.30 261.36C704.31 261.36 727.76 259.77 732.72 259.46ZM731.66 336.86C729.55 337.28 727.97 337.49 725.96 337.49C723.64 337.49 710.23 337.49 710.23 327.36C710.23 322.92 713.82 319.12 718.78 319.12C724.06 319.12 730.29 322.39 731.66 336.86Z" /></g><g><rect ry="8" rx="8" stroke-width="6" stroke="white" fill="none" height="114.84" width="114.84" y="240.57999999999998" x="826.8000000000001" /><rect ry="8" rx="8" fill="#2962c5" height="114.84" width="114.84" y="240.57999999999998" x="826.8000000000001" /><path fill="#ffffff" d="M922.40 269.08C922.40 263.74 918.37 260.14 913.35 260.14L855.09 260.14C849.75 260.14 846.04 264.06 846.04 269.08L846.04 326.47C846.04 331.92 850.18 335.41 855.09 335.41L913.35 335.41C918.48 335.41 922.40 331.71 922.40 326.47ZM905.82 266.14C908.33 266.14 910.19 267.77 910.19 270.50L910.19 325.16C910.19 327.34 908.77 329.52 905.82 329.52L862.62 329.52C859.89 329.52 858.25 327.67 858.25 325.16L858.25 270.50C858.25 267.77 860.00 266.14 862.62 266.14Z" /></g><g><rect ry="8" rx="8" stroke-width="6" stroke="white" fill="none" height="132" width="132" y="232" x="953.6400000000001" /><rect ry="8" rx="8" fill="#2962c5" height="132" width="132" y="232" x="953.6400000000001" /><path fill="#ffffff" d="M1067.67 235.67C1065.29 235.67 1064.41 237.43 1064.41 238.68C1064.41 239.68 1064.91 240.56 1065.41 241.06C1066.16 241.81 1070.43 245.70 1071.30 246.70C1075.19 250.84 1075.57 251.34 1077.20 251.34C1079.33 251.34 1081.34 249.46 1081.34 247.08C1081.34 243.19 1069.17 235.67 1067.67 235.67ZM979.89 257.87C978.38 257.87 975.25 257.87 975.25 261.38C975.25 264.76 978.51 264.76 979.89 264.76L1040.58 264.76C1043.97 264.76 1045.60 267.14 1045.60 269.78L1045.60 329.47C1045.60 332.10 1043.84 334.48 1040.58 334.48L977.38 334.48C976.00 334.48 972.74 334.48 972.74 337.87C972.74 341.38 976.00 341.38 977.38 341.38L1049.11 341.38C1055.76 341.38 1059.64 336.49 1059.64 330.97L1059.64 268.27C1059.64 262.51 1055.50 257.87 1049.11 257.87ZM1056.51 242.44C1054.13 242.44 1053.25 244.32 1053.25 245.45C1053.25 246.45 1053.62 247.21 1054.13 247.71C1055.00 248.59 1059.52 253.10 1060.39 254.10C1064.66 258.99 1065.16 259.62 1066.66 259.62C1069.05 259.62 1071.18 257.49 1071.18 254.98C1071.18 251.22 1058.14 242.44 1056.51 242.44Z" /></g></g><g><g><rect ry="8" rx="8" fill="#ebf766" height="132" width="132" y="368" x="252.8" /><rect ry="8" rx="8" stroke-width="12" stroke="white" fill="none" height="126" width="126" y="371" x="255.8" /><rect ry="8" rx="8" stroke-width="6" stroke="#2962c5" fill="none" height="126" width="126" y="371" x="255.8" /><path stroke-width="6" stroke="white" fill="none" d="M349.11 383.95C348.16 383.95 346.57 384.90 346.57 386.80C346.57 387.64 347.21 388.49 347.63 388.80C349.21 390.07 351.75 392.08 352.49 392.71C355.97 395.98 356.60 396.51 357.66 396.51C359.24 396.51 361.15 395.03 361.15 392.92C361.15 389.44 350.37 383.95 349.11 383.95ZM340.13 390.28C338.76 390.28 337.49 391.44 337.49 392.82C337.49 393.56 338.02 394.72 338.76 395.24C340.45 396.51 342.14 397.88 345.20 401.16C347.63 403.69 348.16 404.12 349.32 404.12C351.22 404.12 353.12 402.43 353.12 400.31C353.12 396.83 341.61 390.28 340.13 390.28ZM315.95 410.45C318.69 410.45 321.55 407.92 321.55 404.54C321.55 401.90 320.28 400.31 313.52 396.93C310.25 395.35 295.99 388.91 293.98 388.91C292.40 388.91 290.92 390.18 290.92 391.97C290.92 393.56 291.77 394.08 294.30 395.56C299.69 398.62 303.80 401.05 310.67 407.60C312.99 409.82 313.94 410.45 315.95 410.45ZM304.97 435.16C307.82 435.16 310.67 432.63 310.67 429.25C310.67 425.66 308.24 423.97 298.52 420.59C290.39 417.84 282.05 416.15 280.36 416.15C278.78 416.15 276.98 417.21 276.98 419.11C276.98 420.91 278.14 421.75 279.73 422.28C287.01 424.92 294.20 429.04 298.52 431.89C302.96 434.84 303.70 435.16 304.97 435.16ZM283.42 469.06C283.42 471.59 285.43 474.97 289.44 474.97C291.66 474.97 298.95 472.86 301.80 472.02C310.46 469.48 321.23 465.15 331.79 457.34C352.49 442.03 362.73 416.68 362.73 415.94C362.73 414.57 361.46 413.20 359.88 413.20C358.51 413.20 357.98 413.72 354.70 419.11C345.62 434.11 326.09 457.87 290.60 462.51C286.17 463.15 283.42 463.78 283.42 469.06Z" /><path fill="#2962c5" d="M349.11 383.95C348.16 383.95 346.57 384.90 346.57 386.80C346.57 387.64 347.21 388.49 347.63 388.80C349.21 390.07 351.75 392.08 352.49 392.71C355.97 395.98 356.60 396.51 357.66 396.51C359.24 396.51 361.15 395.03 361.15 392.92C361.15 389.44 350.37 383.95 349.11 383.95ZM340.13 390.28C338.76 390.28 337.49 391.44 337.49 392.82C337.49 393.56 338.02 394.72 338.76 395.24C340.45 396.51 342.14 397.88 345.20 401.16C347.63 403.69 348.16 404.12 349.32 404.12C351.22 404.12 353.12 402.43 353.12 400.31C353.12 396.83 341.61 390.28 340.13 390.28ZM315.95 410.45C318.69 410.45 321.55 407.92 321.55 404.54C321.55 401.90 320.28 400.31 313.52 396.93C310.25 395.35 295.99 388.91 293.98 388.91C292.40 388.91 290.92 390.18 290.92 391.97C290.92 393.56 291.77 394.08 294.30 395.56C299.69 398.62 303.80 401.05 310.67 407.60C312.99 409.82 313.94 410.45 315.95 410.45ZM304.97 435.16C307.82 435.16 310.67 432.63 310.67 429.25C310.67 425.66 308.24 423.97 298.52 420.59C290.39 417.84 282.05 416.15 280.36 416.15C278.78 416.15 276.98 417.21 276.98 419.11C276.98 420.91 278.14 421.75 279.73 422.28C287.01 424.92 294.20 429.04 298.52 431.89C302.96 434.84 303.70 435.16 304.97 435.16ZM283.42 469.06C283.42 471.59 285.43 474.97 289.44 474.97C291.66 474.97 298.95 472.86 301.80 472.02C310.46 469.48 321.23 465.15 331.79 457.34C352.49 442.03 362.73 416.68 362.73 415.94C362.73 414.57 361.46 413.20 359.88 413.20C358.51 413.20 357.98 413.72 354.70 419.11C345.62 434.11 326.09 457.87 290.60 462.51C286.17 463.15 283.42 463.78 283.42 469.06Z" /></g><g><rect ry="8" rx="8" fill="#ebf766" height="114.84" width="114.84" y="376.58" x="396.8" /><rect ry="8" rx="8" stroke-width="12" stroke="white" fill="none" height="108.84" width="108.84" y="379.58" x="399.8" /><rect ry="8" rx="8" stroke-width="6" stroke="#2962c5" fill="none" height="108.84" width="108.84" y="379.58" x="399.8" /><path stroke-width="6" stroke="white" fill="none" d="M457.99 423.89L477.10 423.89C477.92 423.89 479.76 423.89 479.76 421.87C479.76 419.94 477.92 419.85 477.10 419.85L430.52 419.85C429.69 419.85 427.85 419.94 427.85 421.87C427.85 423.89 429.69 423.89 430.52 423.89L449.72 423.89L449.72 463.22L424.91 463.22C423.99 463.22 422.16 463.22 422.16 465.24C422.16 467.26 424.09 467.26 424.91 467.26L482.70 467.26C483.53 467.26 485.46 467.26 485.46 465.24C485.46 463.22 483.53 463.22 482.70 463.22L457.99 463.22Z" /><path fill="#2962c5" d="M457.99 423.89L477.10 423.89C477.92 423.89 479.76 423.89 479.76 421.87C479.76 419.94 477.92 419.85 477.10 419.85L430.52 419.85C429.69 419.85 427.85 419.94 427.85 421.87C427.85 423.89 429.69 423.89 430.52 423.89L449.72 423.89L449.72 463.22L424.91 463.22C423.99 463.22 422.16 463.22 422.16 465.24C422.16 467.26 424.09 467.26 424.91 467.26L482.70 467.26C483.53 467.26 485.46 467.26 485.46 465.24C485.46 463.22 483.53 463.22 482.70 463.22L457.99 463.22Z" /></g><g><rect ry="8" rx="8" fill="#ebf766" height="132" width="132" y="368" x="523.64" /><rect ry="8" rx="8" stroke-width="12" stroke="white" fill="none" height="126" width="126" y="371" x="526.64" /><rect ry="8" rx="8" stroke-width="6" stroke="#2962c5" fill="none" height="126" width="126" y="371" x="526.64" /><path stroke-width="6" stroke="white" fill="none" d="M595.24 436.32C599.14 433.79 608.01 427.77 617.84 416.58C622.16 411.72 622.69 410.35 622.69 408.55C622.69 408.02 622.69 403.27 616.67 403.27L595.24 403.27L595.24 394.08C595.24 391.87 595.24 387.85 589.22 387.85C583.41 387.85 583.41 391.97 583.41 394.19L583.41 403.27L558.80 403.27C557.64 403.27 555.00 403.27 555.00 406.23C555.00 409.08 557.64 409.08 558.80 409.08L605.48 409.08C607.28 409.08 607.28 410.45 607.28 410.56C607.28 413.30 586.89 439.39 553.84 446.14C550.36 446.88 548.56 447.20 548.56 449.63C548.56 451.42 550.04 452.59 551.41 452.59C552.57 452.59 570.42 449.31 583.41 442.76L583.41 471.80C583.41 474.02 583.41 478.04 589.43 478.04C595.24 478.04 595.24 473.92 595.24 471.70ZM624.17 457.65C627.13 457.65 630.08 455.01 630.08 451.53C630.08 448.89 629.77 447.20 616.04 440.97C612.24 439.28 603.90 435.90 602.73 435.90C601.47 435.90 599.88 436.96 599.88 438.86C599.88 440.44 600.94 441.08 602.31 441.92C606.85 444.67 612.34 447.94 618.47 454.06C621.64 457.23 622.16 457.65 624.17 457.65Z" /><path fill="#2962c5" d="M595.24 436.32C599.14 433.79 608.01 427.77 617.84 416.58C622.16 411.72 622.69 410.35 622.69 408.55C622.69 408.02 622.69 403.27 616.67 403.27L595.24 403.27L595.24 394.08C595.24 391.87 595.24 387.85 589.22 387.85C583.41 387.85 583.41 391.97 583.41 394.19L583.41 403.27L558.80 403.27C557.64 403.27 555.00 403.27 555.00 406.23C555.00 409.08 557.64 409.08 558.80 409.08L605.48 409.08C607.28 409.08 607.28 410.45 607.28 410.56C607.28 413.30 586.89 439.39 553.84 446.14C550.36 446.88 548.56 447.20 548.56 449.63C548.56 451.42 550.04 452.59 551.41 452.59C552.57 452.59 570.42 449.31 583.41 442.76L583.41 471.80C583.41 474.02 583.41 478.04 589.43 478.04C595.24 478.04 595.24 473.92 595.24 471.70ZM624.17 457.65C627.13 457.65 630.08 455.01 630.08 451.53C630.08 448.89 629.77 447.20 616.04 440.97C612.24 439.28 603.90 435.90 602.73 435.90C601.47 435.90 599.88 436.96 599.88 438.86C599.88 440.44 600.94 441.08 602.31 441.92C606.85 444.67 612.34 447.94 618.47 454.06C621.64 457.23 622.16 457.65 624.17 457.65Z" /></g><g><rect ry="8" rx="8" fill="#ebf766" height="114.84" width="114.84" y="376.58" x="667.64" /><rect ry="8" rx="8" stroke-width="12" stroke="white" fill="none" height="108.84" width="108.84" y="379.58" x="670.64" /><rect ry="8" rx="8" stroke-width="6" stroke="#2962c5" fill="none" height="108.84" width="108.84" y="379.58" x="670.64" /><path stroke-width="6" stroke="white" fill="none" d="M698.69 462.02C698.69 466.98 702.55 469.55 706.13 469.55C708.16 469.55 731.22 465.05 746.65 448.33C756.66 437.40 759.97 425.73 759.97 425.18C759.97 424.08 758.87 422.79 757.31 422.79C755.75 422.79 755.38 423.62 754.46 425.64C752.44 429.96 749.31 436.85 739.94 444.47C727.36 454.85 711.83 457.61 711.46 457.61C708.98 457.61 708.98 455.77 708.98 454.76L708.98 400.37C708.98 398.45 708.98 394.95 703.75 394.95C698.69 394.95 698.69 398.54 698.69 400.47Z" /><path fill="#2962c5" d="M698.69 462.02C698.69 466.98 702.55 469.55 706.13 469.55C708.16 469.55 731.22 465.05 746.65 448.33C756.66 437.40 759.97 425.73 759.97 425.18C759.97 424.08 758.87 422.79 757.31 422.79C755.75 422.79 755.38 423.62 754.46 425.64C752.44 429.96 749.31 436.85 739.94 444.47C727.36 454.85 711.83 457.61 711.46 457.61C708.98 457.61 708.98 455.77 708.98 454.76L708.98 400.37C708.98 398.45 708.98 394.95 703.75 394.95C698.69 394.95 698.69 398.54 698.69 400.47Z" /></g><g><rect ry="8" rx="8" fill="#ebf766" height="132" width="132" y="368" x="794.48" /><rect ry="8" rx="8" stroke-width="12" stroke="white" fill="none" height="126" width="126" y="371" x="797.48" /><rect ry="8" rx="8" stroke-width="6" stroke="#2962c5" fill="none" height="126" width="126" y="371" x="797.48" /><path stroke-width="6" stroke="white" fill="none" d="M818.03 429.78C815.71 429.78 814.12 431.04 814.12 433.47C814.12 433.79 814.12 437.06 818.13 437.06L902.83 437.06C906.52 437.06 906.84 434.21 906.84 433.37C906.84 433.05 906.84 429.78 902.93 429.78Z" /><path fill="#2962c5" d="M818.03 429.78C815.71 429.78 814.12 431.04 814.12 433.47C814.12 433.79 814.12 437.06 818.13 437.06L902.83 437.06C906.52 437.06 906.84 434.21 906.84 433.37C906.84 433.05 906.84 429.78 902.93 429.78Z" /></g><g><rect ry="8" rx="8" fill="#ebf766" height="114.84" width="114.84" y="376.58" x="938.48" /><rect ry="8" rx="8" stroke-width="12" stroke="white" fill="none" height="108.84" width="108.84" y="379.58" x="941.48" /><rect ry="8" rx="8" stroke-width="6" stroke="#2962c5" fill="none" height="108.84" width="108.84" y="379.58" x="941.48" /><path stroke-width="6" stroke="white" fill="none" d="M1017.03 412.23C1019.97 412.23 1019.97 414.71 1019.97 415.35C1019.97 418.29 1016.57 432.16 1009.86 441.72C1009.50 436.85 987.26 426.47 985.15 426.47C983.77 426.47 982.58 427.66 982.58 429.13C982.58 430.51 983.22 430.88 984.60 431.70C989.74 434.83 994.15 437.49 999.57 443.92C1002.51 447.51 1002.97 448.06 1005.18 448.15C990.20 462.66 973.12 465.14 966.59 466.16C964.02 466.52 962.46 466.71 962.46 468.91C962.46 470.01 963.29 471.58 965.12 471.58C965.95 471.58 967.05 471.39 968.98 471.12C980.74 469.28 997.19 465.88 1009.86 454.95C1028.06 439.24 1031.45 413.60 1031.45 413.24C1031.45 411.31 1030.26 407.17 1024.93 407.17L992.04 407.17C992.50 406.35 994.98 401.48 994.98 399.09C994.98 395.78 991.67 394.22 989.10 394.22C985.06 394.22 984.32 396.79 983.31 400.47C978.81 417.37 970.27 425.64 963.10 430.69C960.35 432.62 960.07 432.81 960.07 434.00C960.07 435.56 961.36 436.66 962.55 436.66C964.02 436.66 968.06 434.00 969.90 432.71C981.94 424.54 986.62 416.91 989.47 412.23Z" /><path fill="#2962c5" d="M1017.03 412.23C1019.97 412.23 1019.97 414.71 1019.97 415.35C1019.97 418.29 1016.57 432.16 1009.86 441.72C1009.50 436.85 987.26 426.47 985.15 426.47C983.77 426.47 982.58 427.66 982.58 429.13C982.58 430.51 983.22 430.88 984.60 431.70C989.74 434.83 994.15 437.49 999.57 443.92C1002.51 447.51 1002.97 448.06 1005.18 448.15C990.20 462.66 973.12 465.14 966.59 466.16C964.02 466.52 962.46 466.71 962.46 468.91C962.46 470.01 963.29 471.58 965.12 471.58C965.95 471.58 967.05 471.39 968.98 471.12C980.74 469.28 997.19 465.88 1009.86 454.95C1028.06 439.24 1031.45 413.60 1031.45 413.24C1031.45 411.31 1030.26 407.17 1024.93 407.17L992.04 407.17C992.50 406.35 994.98 401.48 994.98 399.09C994.98 395.78 991.67 394.22 989.10 394.22C985.06 394.22 984.32 396.79 983.31 400.47C978.81 417.37 970.27 425.64 963.10 430.69C960.35 432.62 960.07 432.81 960.07 434.00C960.07 435.56 961.36 436.66 962.55 436.66C964.02 436.66 968.06 434.00 969.90 432.71C981.94 424.54 986.62 416.91 989.47 412.23Z" /></g><g><rect ry="8" rx="8" fill="#ebf766" height="132" width="132" y="368" x="1065.32" /><rect ry="8" rx="8" stroke-width="12" stroke="white" fill="none" height="126" width="126" y="371" x="1068.32" /><rect ry="8" rx="8" stroke-width="6" stroke="#2962c5" fill="none" height="126" width="126" y="371" x="1068.32" /><path stroke-width="6" stroke="white" fill="none" d="M1088.87 429.78C1086.55 429.78 1084.96 431.04 1084.96 433.47C1084.96 433.79 1084.96 437.06 1088.97 437.06L1173.67 437.06C1177.36 437.06 1177.68 434.21 1177.68 433.37C1177.68 433.05 1177.68 429.78 1173.77 429.78Z" /><path fill="#2962c5" d="M1088.87 429.78C1086.55 429.78 1084.96 431.04 1084.96 433.47C1084.96 433.79 1084.96 437.06 1088.97 437.06L1173.67 437.06C1177.36 437.06 1177.68 434.21 1177.68 433.37C1177.68 433.05 1177.68 429.78 1173.77 429.78Z" /></g></g></svg>